# xmcd CD database file
#
# Track frame offsets:
#	150
#	22589
#	40415
#	71969
#	93321
#	121574
#	140391
#	155188
#	170035
#	184375
#	198603
#
# Disc length: 3225 seconds
#
# Revision: 0
# Processed by: cddbd v1.5.2PL0 Copyright (c) Steve Scherf et al.
# Submitted via: CDex 1.70beta2
#
DISCID=9b0c970b
DTITLE=Barabás Lőrinc - Random Szerda Small Talk
DYEAR=2008
DGENRE=Jazz
TTITLE0=Dotts Ahead
TTITLE1=Andrássy
TTITLE2=Solid
TTITLE3=Floating
TTITLE4=Pointed Green
TTITLE5=Space Grey
TTITLE6=Other Stripe
TTITLE7=January 23rd
TTITLE8=Lines In
TTITLE9=Found Purple
TTITLE10=Fluid
EXTD=YEAR: 2008
EXTT0=
EXTT1=
EXTT2=
EXTT3=
EXTT4=
EXTT5=
EXTT6=
EXTT7=
EXTT8=
EXTT9=
EXTT10=
PLAYORDER=
